<svg xmlns="http://www.w3.org/2000/svg" width="960" height="204" viewBox="0 0 960 204" role="img" aria-labelledby="title desc">
  <title id="title">Mireu Park — Software Engineer, Backend and AI</title>
  <desc id="desc">A minimal navy header with a blue and teal geometric mark.</desc>
  <defs>
    <linearGradient id="bg" x1="0" y1="0" x2="1" y2="1"><stop stop-color="#101A2C"/><stop offset="1" stop-color="#101722"/></linearGradient>
    <linearGradient id="accent" x1="0" y1="0" x2="1" y2="0"><stop stop-color="#60A5FA"/><stop offset="1" stop-color="#5EEAD4"/></linearGradient>
    <radialGradient id="glow"><stop stop-color="#2563EB" stop-opacity=".15"/><stop offset="1" stop-color="#2563EB" stop-opacity="0"/></radialGradient>
    <clipPath id="clip"><rect width="960" height="204" rx="16"/></clipPath>
  </defs>
  <g clip-path="url(#clip)">
    <rect width="960" height="204" rx="16" fill="url(#bg)"/>
    <ellipse cx="831" cy="96" rx="230" ry="172" fill="url(#glow)"/>
    <rect x="36" y="43" width="25" height="3" rx="1.5" fill="url(#accent)"/>
    <text x="71" y="49" font-family="Arial, Helvetica, sans-serif" font-size="12" font-weight="700" letter-spacing="2.5" fill="#B4C3D9">SOFTWARE ENGINEER</text>
    <text x="34" y="112" font-family="Arial, Helvetica, sans-serif" font-size="56" font-weight="700" letter-spacing="-2" fill="#F1F5F9">Mireu Park</text>
    <text x="37" y="151" font-family="Arial, Helvetica, sans-serif" font-size="17" font-weight="600" letter-spacing="1.3" fill="#7DD3FC">BACKEND</text>
    <path d="M146 140l10 10m0-10l-10 10" stroke="#728198" stroke-width="1.5"/>
    <text x="172" y="151" font-family="Arial, Helvetica, sans-serif" font-size="17" font-weight="600" letter-spacing="1.3" fill="#5EEAD4">AI ENGINEERING</text>
    <g fill="none">
      <path d="M716 31h129l68 68v84H784l-68-68Z" stroke="#334E71" stroke-opacity=".45"/>
      <path d="M751 49h85l50 50v64h-85l-50-50Z" stroke="#426A92" stroke-opacity=".5"/>
      <path d="M759 92l-15 15 15 15m91-30l15 15-15 15" stroke="#789FC3" stroke-width="2.5" stroke-linecap="round" stroke-linejoin="round"/>
      <path d="M785 125V89l20 23 20-23v36" stroke="url(#accent)" stroke-width="5" stroke-linecap="round" stroke-linejoin="round"/>
      <path d="M717 115h-29m157-84V17m68 82h24" stroke="#4E6B89" stroke-width="1.5"/>
    </g>
    <circle cx="688" cy="115" r="3" fill="#60A5FA"/>
    <circle cx="845" cy="17" r="3" fill="#5EEAD4"/>
    <circle cx="937" cy="99" r="3" fill="#60A5FA"/>
  </g>
  <rect x=".5" y=".5" width="959" height="203" rx="15.5" fill="none" stroke="#314158" stroke-opacity=".7"/>
</svg>
