<svg xmlns="http://www.w3.org/2000/svg" width="310" height="36" viewBox="0 0 310 36" role="img" aria-label="JAVA, FASTAPI, SQLITE">
<g transform="translate(0 0)"><rect x=".5" y="2.5" width="85" height="31" rx="6" fill="#813F20" stroke="#AC633E"/><g transform="translate(10 7) scale(.8)" color="#FFCC9A"><path d="M6 11h12v6a4 4 0 0 1-4 4h-4a4 4 0 0 1-4-4zm12 1h2a3 3 0 0 1 0 6h-2M9 7c-3-3 4-3 1-6m5 6c-3-3 4-3 1-6M5 24h15" fill="none" stroke="currentColor" stroke-width="1.5" stroke-linecap="round" stroke-linejoin="round"/></g><text x="35" y="22.5" font-family="Arial, Helvetica, sans-serif" font-size="12" font-weight="700" letter-spacing=".35" fill="#FFFFFF">JAVA</text></g>
<g transform="translate(94 0)"><rect x=".5" y="2.5" width="108" height="31" rx="6" fill="#075E54" stroke="#218D7B"/><g transform="translate(10 7) scale(.8)" color="#91F1DC"><path d="M14 1 5 14h7l-2 11 10-15h-7Z" fill="currentColor"/></g><text x="35" y="22.5" font-family="Arial, Helvetica, sans-serif" font-size="12" font-weight="700" letter-spacing=".35" fill="#FFFFFF">FASTAPI</text></g>
<g transform="translate(211 0)"><rect x=".5" y="2.5" width="98" height="31" rx="6" fill="#204B72" stroke="#3D77A8"/><g transform="translate(10 7) scale(.8)" color="#A5DEFF"><ellipse cx="12" cy="5" rx="8" ry="3" fill="none" stroke="currentColor" stroke-width="1.5"/><path d="M4 5v16c0 4 16 4 16 0V5M4 13c0 4 16 4 16 0" fill="none" stroke="currentColor" stroke-width="1.5"/></g><text x="35" y="22.5" font-family="Arial, Helvetica, sans-serif" font-size="12" font-weight="700" letter-spacing=".35" fill="#FFFFFF">SQLITE</text></g>
</svg>
